# xmcd
#
# Track frame offsets:
#	182
#	24482
#	46180
#	57367
#	73507
#	88375
#	103710
#	113807
#	126785
#	143257
#	157482
#	170882
#	181200
#	194890
#	209295
#	227157
#
# Disc length: 3321
#
# Revision: 1
# Processed by: cddbd v1.5.1PL0 Copyright (c) Steve Scherf et al.
# Submitted via: CDex 1.51
# Normalized: r0:DSETVAR1,TDELIM( - )
#
DISCID=ee0cf710
DTITLE=Various Artist - 16 All-time Jazz Sessions - vol1
DYEAR=1900
DGENRE=Jazz
TTITLE0=Dave Brubeck - Take Five
TTITLE1=Sarah Vaughan - Embraceable You
TTITLE2=Woody Herman - The good Earth
TTITLE3=Harry James - The Jazz Connoisseur
TTITLE4=Lionel Hampton - Complete crazy
TTITLE5=Modern Jazz Quartet - Versailles
TTITLE6=Benny Goodman - Let's dance
TTITLE7=Django Reinhard - Oh Lady be good
TTITLE8=Gen Krupa - Paradise
TTITLE9=George Shearing - Midnight in the Air
TTITLE10=Duke Ellington - The Miner goes mugging
TTITLE11=Lena Horne - The Lady is a Tramp
TTITLE12=Count Basie - Jumpin' at the Woodside
TTITLE13=Charlie Parker - Bird of Paradise
TTITLE14=Louis Armstrong - Cabaret
TTITLE15=Miles Davis - Woody'n You
EXTD=
EXTT0=
EXTT1=
EXTT2=
EXTT3=
EXTT4=
EXTT5=
EXTT6=
EXTT7=
EXTT8=
EXTT9=
EXTT10=
EXTT11=
EXTT12=
EXTT13=
EXTT14=
EXTT15=
PLAYORDER=
